<svg width="27" height="15" viewBox="0 0 27 15" fill="none" xmlns="http://www.w3.org/2000/svg">
<path d="M27 0H0V15H27V0Z" fill="#E20212"/>
<path d="M4.49996 1.39282L5.10617 3.05472H7.06779L5.48083 4.01557L6.08692 5.57022L4.49996 4.60936L2.913 5.57022L3.51909 4.01557L1.93213 3.05472H3.89374L4.49996 1.39282Z" fill="#F6E204"/>
<path d="M9.36874 0.776918L9.29458 1.3526L9.89631 1.56582L9.25911 1.68807L9.20169 2.23084L8.86528 1.7636L8.22808 1.88585L8.65734 1.47484L8.32093 1.00759L8.92266 1.22082L9.36874 0.776918Z" fill="#F6E204"/>
<path d="M11.4768 2.45289L11.1404 2.95947L11.5957 3.35058L10.9515 3.25718L10.6458 3.73885L10.5534 3.19943L9.90917 3.10604L10.4962 2.86605L10.4037 2.32664L10.859 2.71774L11.4768 2.45289Z" fill="#F6E204"/>
<path d="M11.6856 4.98058L11.1305 5.32873L11.3547 5.84058L10.8122 5.53632L10.2974 5.87218L10.477 5.34826L9.93457 5.044L10.588 5.02444L10.7676 4.50051L10.9919 5.01237L11.6856 4.98058Z" fill="#F6E204"/>
<path d="M9.33263 6.01485L9.28717 6.5926L9.89899 6.78485L9.26842 6.92901L9.23805 7.47329L8.87869 7.01807L8.24812 7.16223L8.65656 6.73674L8.2972 6.28152L8.90902 6.47377L9.33263 6.01485Z" fill="#F6E204"/>
</svg>
