<svg width="45" height="24" viewBox="0 0 45 24" fill="none" xmlns="http://www.w3.org/2000/svg">
<g clip-path="url(#clip0_10_234)">
<path d="M41.9667 5.25259e-06H3.03334C2.63479 -0.000747615 2.24002 0.0794397 1.87167 0.235968C1.50332 0.392496 1.16863 0.622284 0.886816 0.912153C0.604999 1.20202 0.381593 1.54627 0.229413 1.92514C0.077233 2.30402 -0.000726848 2.71007 5.10668e-06 3.12001V5.71429H45V3.12001C45.0007 2.71007 44.9228 2.30402 44.7706 1.92514C44.6184 1.54627 44.395 1.20202 44.1132 0.912153C43.8314 0.622284 43.4967 0.392496 43.1283 0.235968C42.76 0.0794397 42.3652 -0.000747615 41.9667 5.25259e-06Z" fill="white"/>
<path d="M5.10668e-06 20.88C-0.000726848 21.2899 0.077233 21.696 0.229413 22.0749C0.381593 22.4537 0.604999 22.798 0.886816 23.0878C1.16863 23.3777 1.50332 23.6075 1.87167 23.764C2.24002 23.9206 2.63479 24.0008 3.03334 24H41.9667C42.3652 24.0008 42.76 23.9206 43.1283 23.764C43.4967 23.6075 43.8314 23.3777 44.1132 23.0878C44.395 22.798 44.6184 22.4537 44.7706 22.0749C44.9228 21.696 45.0007 21.2899 45 20.88V12H5.10668e-06V20.88Z" fill="white"/>
</g>
<defs>
<clipPath id="clip0_10_234">
<rect width="45" height="24" fill="white"/>
</clipPath>
</defs>
</svg>
