<svg width="28" height="15" viewBox="0 0 28 15" fill="none" xmlns="http://www.w3.org/2000/svg">
<path d="M28 0H0V15H28V0Z" fill="#FF0000"/>
<path d="M21 0H7V15H21V0Z" fill="white"/>
<path d="M13.9998 1.40625L13.0446 3.315C12.9363 3.52245 12.7421 3.50321 12.5479 3.38734L11.8564 3.00367L12.3717 5.93548C12.4801 6.4711 12.1324 6.4711 11.9608 6.2395L10.7539 4.79197L10.558 5.52706C10.5354 5.6236 10.4361 5.72498 10.287 5.70084L8.76098 5.35707L9.1618 6.91842C9.24761 7.26585 9.31454 7.40967 9.07518 7.50132L8.53125 7.77523L11.1582 10.0615C11.2622 10.1479 11.3147 10.3035 11.2777 10.4443L11.0478 11.2527C11.9523 11.141 12.7628 10.973 13.6677 10.8695C13.7476 10.8603 13.8814 11.0016 13.8808 11.1008L13.761 14.0625H14.2008L14.1315 11.1071C14.131 11.0079 14.2523 10.8603 14.3322 10.8694C15.2372 10.9729 16.0476 11.141 16.9521 11.2527L16.7222 10.4443C16.6852 10.3035 16.7377 10.1479 16.8417 10.0614L19.4687 7.7752L18.9248 7.5013C18.6854 7.40967 18.7523 7.26583 18.8382 6.9184L19.239 5.35705L17.7129 5.70082C17.5639 5.72496 17.4645 5.62357 17.4419 5.52704L17.246 4.79195L16.0392 6.23948C15.8676 6.47107 15.5198 6.47107 15.6282 5.93546L16.1436 3.00365L15.4521 3.38732C15.2579 3.50319 15.0637 3.52243 14.9553 3.31498" fill="#FF0000"/>
</svg>
