<svg width="33" height="33" viewBox="0 0 33 33" fill="none" xmlns="http://www.w3.org/2000/svg">
<g clip-path="url(#clip0_10_174)">
<path d="M32.4461 15.0222L27.4448 10.0208V4.24349C27.4448 3.19887 26.5982 2.35228 25.5521 2.35228C24.5083 2.35228 23.6618 3.19887 23.6618 4.24349V6.23796L19.9379 2.51395C18.0968 0.673829 14.8957 0.677093 13.0588 2.51728L0.553655 15.0222C-0.184552 15.7618 -0.184552 16.9587 0.553655 17.6972C1.29219 18.4367 2.49136 18.4367 3.22964 17.6972L15.7336 5.192C16.1409 4.78679 16.8589 4.78679 17.2641 5.1908L29.7702 17.6972C30.141 18.067 30.6245 18.2509 31.1078 18.2509C31.5922 18.2509 32.0764 18.0668 32.4461 17.6972C33.1846 16.9587 33.1846 15.7619 32.4461 15.0222Z" fill="white"/>
<path d="M17.1569 8.78197C16.7936 8.41887 16.2053 8.41887 15.8431 8.78197L4.84353 19.7783C4.66987 19.9519 4.57141 20.1889 4.57141 20.4362V28.4565C4.57141 30.3385 6.09738 31.8644 7.97934 31.8644H13.4252V23.4305H19.5736V31.8644H25.0195C26.9014 31.8644 28.4274 30.3385 28.4274 28.4566V20.4362C28.4274 20.1889 28.3298 19.9519 28.1553 19.7783L17.1569 8.78197Z" fill="white"/>
</g>
<defs>
<clipPath id="clip0_10_174">
<rect width="33" height="33" fill="white"/>
</clipPath>
</defs>
</svg>
