<svg width="35" height="35" viewBox="0 0 35 35" fill="none" xmlns="http://www.w3.org/2000/svg">
<path d="M6.89389 35H28.106C28.9846 35 29.6969 34.2877 29.6969 33.4091V15.3788C29.6969 14.5002 28.9846 13.7879 28.106 13.7879H26.5151V9.01515C26.5151 4.0442 22.4709 0 17.4999 0C12.529 0 8.4848 4.0442 8.4848 9.01515V13.7879H6.89389C6.01528 13.7879 5.30298 14.5002 5.30298 15.3788V33.4091C5.30298 34.2877 6.01528 35 6.89389 35ZM22.0055 23.265L17.4979 27.7726C17.1873 28.0833 16.7801 28.2386 16.3731 28.2386C15.966 28.2386 15.5587 28.0833 15.2482 27.7726L12.9944 25.5188C12.3731 24.8975 12.3731 23.8904 12.9944 23.269C13.6156 22.6477 14.6229 22.6477 15.2443 23.269L16.3732 24.3978L19.7559 21.0152C20.3771 20.3939 21.3844 20.3939 22.0057 21.0152C22.6269 21.6366 22.6269 22.6437 22.0055 23.265ZM11.6666 9.01515C11.6666 5.79865 14.2834 3.18182 17.4999 3.18182C20.7164 3.18182 23.3333 5.79865 23.3333 9.01515V13.7879H11.6666V9.01515Z" fill="white"/>
</svg>
