<svg width="29" height="15" viewBox="0 0 29 15" fill="none" xmlns="http://www.w3.org/2000/svg">
<g clip-path="url(#clip0_16_674)">
<path d="M29.0006 0H0V15.0003H29.0006V0Z" fill="#000066"/>
<path d="M0 0V1.67708L25.7583 15.0003H29.0006V13.3233L3.24226 5.0001e-05H0L0 0ZM29.0006 0V1.67703L3.24226 15.0003H0V13.3233L25.7583 0H29.0006Z" fill="white"/>
<path d="M12.0836 0V15.0003H16.917V0H12.0836ZM0 5.0001V10.0002H29.0006V5.0001H0Z" fill="white"/>
<path d="M0 6.00012V9.00018H29.0006V6.00012H0ZM13.0503 0V15.0003H15.9503V0H13.0503Z" fill="#CC0000"/>
<path d="M0 15.0003L9.66686 10.0002H11.8284L2.16151 15.0003H0H0ZM0 0L9.66686 5.0001H7.50535L0 1.11807V0L0 0ZM17.1722 5.0001L26.8391 0H29.0006L19.3337 5.0001H17.1722ZM29.0006 15.0003L19.3337 10.0002H21.4952L29.0006 13.8823V15.0003Z" fill="#CC0000"/>
</g>
<defs>
<clipPath id="clip0_16_674">
<rect width="29" height="15" fill="white"/>
</clipPath>
</defs>
</svg>
